# xmcd
#
# Track frame offsets:
#	150
#	31865
#	52467
#	68423
#	88970
#	104745
#	124698
#	148621
#	167025
#	182069
#	199816
#	220718
#	233470
#	252329
#	268709
#	328616
#	343781
#
# Disc length: 4827 seconds
#
# Revision: 0
# Processed by: cddbd v1.5.2PL0 Copyright (c) Steve Scherf et al.
# Submitted via: EasyCDDAExtractor 8.2.3.1
#
DISCID=0212d911
DTITLE=Various Artist - Good Whiskey Blues bottle 2
DYEAR=2002
DGENRE=Blues
TTITLE0=LOST IN DETROIT - I Want To Make Love To You
TTITLE1=STEVE GANNON - To Through With You
TTITLE2=VIPPERS - Mailbox Blues
TTITLE3=HYPNOTICS - Blues Patrol
TTITLE4=DEAN HALL - I Know Something Bout the Blues
TTITLE5=STEDDY EDDY - Blue Train
TTITLE6=METROPOLITIAN BLUES ALL-STARS - Bad Situation
TTITLE7=TOM WAGONER - My Old Friend the Blues
TTITLE8=BUDDY FLETT - Threed House On the Left
TTITLE9=BLEU JACKSON - Lightnin'
TTITLE10=GARY SMITH - I Can't Seam To Snake These Blues
TTITLE11=JIM SUHLER - Where Were You When the Lights Went Out?
TTITLE12=MICHAEL HARDIE - Pretenders Blues
TTITLE13=JACK MORGAN BAND - Honeyman
TTITLE14=BLINDSIDE BLUES BAND - I'm Trying
TTITLE15=SLOLEAK - I Cry For You
TTITLE16=The UNDERDOG - Track17
EXTD=
EXTT0=
EXTT1=
EXTT2=
EXTT3=
EXTT4=
EXTT5=
EXTT6=
EXTT7=
EXTT8=
EXTT9=
EXTT10=
EXTT11=
EXTT12=
EXTT13=
EXTT14=
EXTT15=
EXTT16=
PLAYORDER=
